<?xml version="1.0" encoding="UTF-8"?>
<!DOCTYPE svg PUBLIC "-//W3C//DTD SVG 1.1//EN" "http://www.w3.org/Graphics/SVG/1.1/DTD/svg11.dtd">
<!-- Creator: CorelDRAW -->
<svg xmlns="http://www.w3.org/2000/svg" xml:space="preserve" width="296.353mm" height="260.767mm" version="1.1" style="shape-rendering:geometricPrecision; text-rendering:geometricPrecision; image-rendering:optimizeQuality; fill-rule:evenodd; clip-rule:evenodd"
viewBox="0 0 13298.67 11701.78"
 xmlns:xlink="http://www.w3.org/1999/xlink"
 xmlns:xodm="http://www.corel.com/coreldraw/odm/2003">
 <defs>
  <style type="text/css">
   <![CDATA[
    .fil0 {fill:#E31E24}
    .fil1 {fill:#FEFEFE;fill-rule:nonzero}
   ]]>
  </style>
 </defs>
 <g id="Слой_x0020_1">
  <metadata id="CorelCorpID_0Corel-Layer"/>
  <path class="fil0" d="M6949.56 11689.1c0,0 -576.73,-0.01 -1311.92,-177.47 -735.19,-177.45 -1102.78,-329.56 -1102.78,-329.56 0,0 183.8,259.86 411.96,367.59 228.16,107.73 323.23,152.12 323.23,152.12 0,0 -285.22,-63.4 -443.66,-101.42 -158.44,-38.02 -1223.2,-570.4 -2059.79,-1381.64 -836.59,-811.24 -1123.3,-1310.25 -1250.78,-1552.45 -127.47,-242.21 -305.95,-739.38 -305.95,-739.38l50.99 739.38c0,0 -699,-733.96 -444.03,-3771.35 254.97,-3037.39 3374.04,-4208.21 3717.71,-4341.23 343.67,-133.02 1629.58,-631.88 2738.13,-543.19 1108.55,88.69 3115.04,776 3525.2,1019.88 410.16,243.88 498.86,421.26 521.02,532.11 22.16,110.84 -133.02,88.68 -277.14,55.42 -144.12,-33.26 -277.14,-88.69 -277.14,-88.69 0,0 -99.79,199.55 133.02,354.74 232.81,155.19 576.44,376.9 787.07,642.95 210.63,266.05 155.21,399.09 155.21,399.09 0,0 -310.4,-332.56 -321.49,-266.05 -11.09,66.51 -11.09,144.09 88.69,210.61 99.77,66.53 332.56,332.58 332.56,332.58 0,0 -698.39,-266.06 -698.39,-232.8 0,33.26 22.19,133.03 155.21,210.63 133.02,77.6 731.65,776 953.36,1330.27 221.7,554.27 33.25,1053.11 -33.27,1008.78 -66.51,-44.34 -155.19,-487.76 -155.19,-487.76l-99.77 188.44c0,0 -232.79,-432.33 -243.88,-576.44 -11.09,-144.11 -88.69,-299.3 -88.69,-299.3 0,0 33.25,798.15 55.42,1175.06 22.17,376.91 -155.2,886.84 -155.2,886.84 0,0 -66.52,-1019.87 -110.86,-1141.81 -44.34,-121.95 -199.53,-77.6 -587.53,-332.56 -388,-254.97 -476.69,-742.73 -631.88,-875.76 -155.19,-133.03 -609.69,-654.05 -897.92,-642.96 -288.23,11.09 -476.68,22.17 -565.37,-55.42 -88.69,-77.6 -66.49,-321.49 -310.39,-365.83 -243.89,-44.34 -1197.25,-99.77 -1452.21,-77.6 -254.97,22.18 -709.48,376.91 -1108.55,465.6 -399.07,88.69 -986.62,288.21 -986.62,288.21 0,0 521.02,-365.83 798.16,-443.42 277.14,-77.6 487.77,-232.79 487.77,-232.79 0,0 -897.93,188.46 -1596.32,465.6 -698.39,277.14 -1363.53,731.65 -1518.72,1319.18 -155.19,587.53 -328.41,1247.56 -271.57,2062.47 56.85,814.91 663.3,1781.46 1089.7,2236.28 426.41,454.83 1260.59,1080.28 2208.28,1234.17 947.68,153.9 1790.06,162 2413.75,-105.3 623.69,-267.3 1190.68,-688.49 1190.68,-688.49 0,0 -113.38,259.19 -275.39,356.4 -162.01,97.2 -129.59,97.2 -8.1,80.99 121.49,-16.2 170.1,-40.49 170.1,-40.49 0,0 -145.81,332.08 -818.1,623.68 -672.29,291.6 -1563.27,575.1 -3102.24,137.71 -1538.97,-437.4 -2859.24,-1425.59 -2859.24,-1425.59 0,0 558.88,1061.09 1741.46,1652.38 1182.58,591.29 2321.38,787.6 2321.38,787.6z"/>
  <g id="_2315831212848">
   <path class="fil1" d="M1290.26 6599.63c-19.72,0 -37.03,-3.85 -51.94,-11.06 -14.91,-7.69 -27.41,-17.31 -37.51,-29.81 -9.62,-12.02 -17.31,-25.97 -22.6,-42.32 -4.81,-15.87 -7.7,-31.74 -7.7,-47.61 0,-14.43 3.85,-33.66 11.54,-58.67 7.22,-25.01 16.83,-52.9 28.85,-83.68 11.54,-31.26 24.53,-63.48 38.47,-97.14 14.43,-34.14 27.89,-66.36 40.88,-97.14 13.46,-31.26 24.52,-60.11 33.66,-86.08 9.62,-26.45 16.35,-47.13 20.2,-62.04 3.37,-16.83 8.18,-37.03 13.95,-60.59 5.77,-23.56 12.02,-49.05 18.76,-76.94 7.21,-27.41 14.43,-56.75 21.16,-87.04 7.21,-30.78 14.43,-61.56 22.12,-92.33 -13.47,2.89 -29.34,5.29 -48.57,7.69 -19.24,2.41 -39.92,4.33 -61.56,6.26 -30.77,2.89 -61.55,7.21 -91.37,12.5 -30.3,5.77 -61.07,12.02 -92.33,19.24 -31.74,7.21 -63.96,14.43 -98.1,22.6 -33.66,7.7 -69.73,16.35 -108.2,24.53 -56.27,12.5 -113.02,25.97 -169.28,40.88 -56.26,14.91 -114.94,22.6 -176.01,22.6 -18.75,0 -36.07,-4.81 -52.42,-14.91 -15.87,-9.62 -33.66,-16.83 -53.38,-21.64 -18.76,29.82 -36.55,62.04 -53.38,96.18 -16.83,34.63 -32.7,69.73 -46.65,105.8 -13.95,36.07 -26.93,72.14 -37.99,107.24 -11.06,35.11 -21.16,68.29 -29.33,99.06 -4.81,17.31 -9.14,38.96 -12.03,65.88 -3.37,26.45 -6.73,53.86 -9.14,81.76 -2.89,27.41 -5.77,53.86 -8.66,79.35 -2.89,25.49 -5.77,45.69 -8.66,60.59 -2.41,13.95 -8.18,27.89 -16.83,41.36 -8.17,13.95 -18.75,26.45 -30.77,37.51 -12.5,11.54 -25.97,20.68 -40.88,27.41 -14.91,7.21 -30.3,10.58 -45.21,10.58 -26.45,0 -47.61,-7.69 -63.96,-23.08 -16.35,-15.39 -29.81,-34.63 -39.44,-57.71 -10.1,-23.08 -16.83,-48.09 -20.68,-75.5 -3.85,-27.41 -5.29,-51.94 -5.29,-74.54 0,-57.22 6.74,-116.86 21.16,-178.41 13.94,-61.56 32.7,-124.07 56.74,-187.07 24.05,-63.48 52.42,-127.44 84.64,-191.88 32.22,-64.44 67.33,-128.4 104.84,-192.36 31.26,-57.23 69.73,-123.59 115.42,-198.61 46.17,-75.02 97.62,-152.44 154.37,-231.79 56.75,-79.35 118.3,-157.25 184.67,-233.23 66.36,-75.99 135.13,-143.79 206.31,-203.42 71.66,-59.63 144.75,-107.72 219.77,-144.27 75.5,-37.03 150.04,-55.3 224.1,-55.3 77.91,0 142.83,14.43 195.24,42.32 51.94,28.37 93.78,66.36 124.55,114.45 31.26,47.61 52.9,103.4 65.4,167.35 12.99,63.96 19.24,131.77 19.24,202.94 0,62.99 -3.85,127.92 -12.02,194.28 -8.18,66.84 -17.8,132.24 -29.82,196.21 -11.54,63.48 -24.04,125.03 -37.99,184.18 -13.47,59.15 -25.97,113.01 -37.03,160.62l-49.53 191.88c-1.92,5.77 -5.29,16.83 -10.58,33.66 -4.81,16.83 -11.54,37.51 -19.72,61.55 -7.7,23.56 -16.83,49.53 -26.45,77.43 -10.1,27.41 -19.72,54.82 -29.82,81.75 -9.62,26.45 -19.23,51.46 -28.37,73.58 -8.66,22.6 -16.35,40.88 -23.08,55.3l1.44 -1.44c-6.73,24.53 -13.47,49.05 -21.16,74.54 -7.7,25.49 -17.8,48.09 -30.78,68.29 -13.47,20.2 -30.29,36.55 -50.98,49.53 -20.68,12.5 -47.13,18.75 -80.31,18.75zm72.14 -1763.95c-42.32,0 -84.64,8.66 -126.48,25.97 -41.84,17.79 -82.72,40.4 -123.11,68.77 -40.4,27.89 -79.83,60.59 -117.82,98.58 -37.99,37.51 -74.06,75.98 -108.2,115.42 -34.14,39.44 -66.36,78.87 -96.66,118.78 -29.82,39.92 -57.23,76.95 -81.76,110.61 -3.85,5.77 -8.66,12.99 -14.91,22.12 -5.77,8.66 -12.02,18.75 -18.27,29.33 -5.77,11.06 -12.02,22.12 -17.31,34.14 -5.77,11.54 -10.58,22.12 -14.43,31.74l145.23 0c52.9,0 113.01,-3.85 180.34,-11.54 67.81,-7.7 134.65,-16.35 201.02,-26.93 65.88,-10.1 126.96,-20.68 182.26,-31.26 55.3,-11.06 97.14,-19.24 125.51,-25.01 3.85,-12.02 7.22,-28.37 10.58,-49.05 3.37,-20.68 6.25,-43.76 9.14,-69.25 2.89,-25.49 4.81,-52.42 6.25,-80.79 1.44,-28.85 1.93,-58.19 1.93,-88 0,-24.53 -0.96,-52.42 -2.41,-84.16 -1.92,-31.26 -7.69,-61.07 -17.31,-89.45 -9.14,-27.89 -23.56,-51.94 -42.8,-71.18 -19.23,-19.23 -46.16,-28.85 -80.79,-28.85zm573.81 1498.98c7.22,0 13.95,0.96 20.2,2.89 6.25,1.92 12.99,4.33 20.2,6.25 7.7,2.41 16.35,4.81 25.49,6.73 9.62,1.93 21.64,2.89 36.55,2.89 44.24,0 93.29,-4.81 147.64,-14.43 53.86,-9.14 104.84,-21.64 152.45,-36.55 48.09,-14.91 88.96,-32.22 123.59,-51.46 34.14,-19.24 53.86,-38.96 58.19,-59.63 2.89,-11.54 4.33,-21.16 4.33,-29.81 0,-15.87 -7.7,-31.26 -23.08,-45.69 -15.39,-14.43 -35.11,-28.37 -58.67,-41.84 -23.57,-12.99 -48.57,-25.01 -75.99,-36.55 -27.41,-11.06 -52.42,-21.64 -75.98,-30.78l-48.09 -19.72c-24.52,-9.62 -48.09,-21.16 -71.65,-34.63 -23.57,-13.46 -45.21,-29.33 -65.4,-47.13 -20.2,-17.79 -38.47,-38.95 -53.86,-62.51 -15.39,-24.05 -26.93,-51.46 -34.14,-82.72 -3.85,-12.99 -7.22,-26.45 -9.62,-39.44 -1.92,-12.98 -3.37,-27.41 -3.37,-42.32 0,-24.53 8.18,-52.42 24.53,-83.68 16.83,-31.74 38.47,-62.52 66.36,-93.78 27.89,-30.77 59.15,-60.59 94.25,-88.97 35.59,-27.89 72.14,-51.45 110.61,-70.21 28.37,-19.72 55.79,-37.51 81.76,-53.38 26.45,-16.35 52.9,-29.82 79.83,-40.88 26.45,-11.54 53.86,-20.2 81.76,-26.93 27.41,-6.73 56.74,-9.62 88,-9.62 27.89,0 58.67,0.96 91.37,3.85 33.18,2.89 62.99,9.62 90.41,19.72 26.93,10.58 50.01,25.97 68.29,46.17 18.28,20.2 27.41,47.13 27.41,80.79 0,10.58 -1.44,24.04 -4.33,40.88 -2.89,16.83 -7.21,33.66 -13.94,50.5 -6.74,17.31 -14.43,31.74 -24.05,43.76 -9.14,12.5 -20.68,18.27 -33.66,18.27 -21.64,0 -39.44,-3.85 -53.86,-12.5 -13.95,-8.66 -26.45,-17.79 -37.99,-27.41 -11.06,-10.1 -23.08,-19.23 -35.11,-27.41 -12.02,-8.66 -27.41,-12.99 -45.21,-12.99 -21.64,0 -46.65,4.33 -75.02,12.02 -28.85,8.18 -58.19,18.76 -88,32.7 -30.3,13.46 -59.63,29.33 -88.49,47.13 -28.37,17.79 -54.34,36.07 -77.43,54.82 -23.08,18.76 -41.36,37.51 -55.3,55.78 -14.43,18.28 -21.16,35.11 -21.16,50.02 0,15.87 4.81,28.85 15.39,39.43 10.1,10.1 23.56,19.24 39.44,26.45 20.68,11.54 44.24,22.6 71.17,34.14 26.45,11.06 53.86,22.6 80.79,33.66 27.41,11.06 53.86,22.6 79.83,33.66 25.97,11.54 48.09,21.64 66.84,31.26 25.49,12.99 48.09,25.97 68.29,38.48 20.2,12.98 37.51,26.93 51.46,41.84 13.94,14.91 25,31.74 32.22,50.5 7.69,18.75 11.54,40.88 11.54,66.36 0,12.02 -0.96,24.52 -2.89,36.55 -1.93,12.5 -4.81,26.45 -8.66,42.32 -2.41,13.95 -7.7,30.77 -14.43,49.53 -7.22,18.75 -14.91,37.03 -22.6,55.3 -8.18,18.27 -16.35,35.11 -25.01,49.53 -8.18,14.43 -15.39,24.05 -20.68,28.85 -37.03,33.66 -80.31,65.4 -129.84,95.22 -50.01,29.33 -101.47,55.3 -155.81,77.43 -53.86,22.12 -107.72,39.44 -162.06,52.9 -53.86,12.99 -103.4,19.72 -148.6,19.72 -22.6,0 -47.13,-4.81 -74.54,-13.47 -27.41,-9.14 -52.42,-20.68 -75.5,-35.11 -23.08,-14.91 -42.32,-31.26 -57.71,-50.01 -15.39,-18.76 -23.08,-37.99 -23.08,-56.75 0,-9.14 2.89,-19.72 8.18,-31.26 5.77,-12.02 12.98,-22.6 21.16,-32.7 8.66,-9.62 17.79,-18.27 27.41,-25.49 10.1,-6.73 19.23,-10.58 27.89,-10.58zm1037.88 -8.18c14.43,-54.34 31.26,-117.82 50.98,-190.44 19.72,-72.14 40.4,-148.6 62.52,-229.39 22.12,-80.79 44.72,-163.51 66.84,-248.15 22.6,-84.64 43.76,-166.87 63.48,-246.71 0.96,-3.37 4.33,-10.1 10.1,-18.75 5.29,-9.14 13.47,-17.79 24.05,-26.93 10.1,-8.66 23.08,-16.35 39.43,-23.08 15.87,-6.74 34.63,-10.1 56.27,-10.1 15.87,0 31.26,1.93 46.17,5.29 15.39,3.37 28.37,8.18 40.4,14.43 11.54,6.73 21.16,15.39 27.89,26.45 7.22,10.58 10.58,23.08 10.58,37.03 0,2.89 0,5.77 0,9.14 0,3.37 0,6.25 -0.96,9.14l-39.44 149.56c-44.24,167.35 -89.45,334.71 -134.65,503.02 -45.68,167.83 -89.93,336.63 -133.21,505.91 -1.92,5.29 -4.81,12.5 -8.66,20.68 -3.37,8.66 -8.66,17.31 -15.39,25.49 -6.73,8.66 -14.43,15.39 -24.04,21.16 -9.14,5.77 -20.68,8.66 -33.66,8.66 -24.52,0 -46.17,-4.81 -64.92,-14.91 -18.76,-9.62 -34.63,-22.12 -47.61,-37.51 -13.47,-14.91 -23.08,-31.26 -29.81,-49.05 -6.73,-17.79 -9.62,-34.63 -9.62,-50.97 0,-4.33 0,-8.66 0,-12.51 0,-3.85 0.96,-8.18 2.4,-12.5l40.88 -164.95zm367.89 -1458.1c4.81,-19.72 12.98,-43.77 25.49,-72.14 12.02,-27.89 33.66,-53.38 64.92,-75.99 14.91,-8.66 33.18,-16.35 54.82,-23.08 21.64,-7.21 37.03,-10.58 46.17,-10.58 9.62,0 19.24,3.37 29.33,9.62 9.62,6.73 18.27,13.95 25.97,21.16 9.14,9.62 18.27,19.72 26.45,31.26 23.56,1.93 38.96,10.1 46.17,25.01 6.73,15.39 10.58,33.18 10.58,53.86 0,14.91 -1.44,28.37 -4.33,40.88 -2.89,12.02 -5.29,22.12 -7.21,29.33 -5.77,19.71 -16.35,37.99 -32.22,54.34 -15.87,16.35 -34.63,30.3 -55.3,42.32 -20.68,11.54 -41.84,20.68 -64.44,27.41 -22.6,6.73 -42.32,9.62 -59.15,9.62 -21.64,0 -38.47,-3.37 -50.01,-11.06 -12.03,-7.7 -26.45,-23.56 -44.73,-48.09 -10.1,-13.94 -15.87,-25 -17.31,-32.7 -1.44,-8.18 -2.41,-14.91 -2.41,-20.68 0,-10.1 0.96,-19.24 2.41,-27.41 1.44,-8.18 2.89,-15.87 4.81,-23.08zm931.6 1655.26c0,-27.41 3.37,-59.63 10.1,-98.1 6.25,-37.99 9.62,-85.12 9.62,-141.39 -30.77,22.6 -65.4,49.53 -102.91,80.31 -37.51,30.78 -76.47,60.59 -116.86,88.97 -40.4,27.89 -80.31,51.46 -120.22,70.69 -39.92,19.24 -77.43,28.85 -112.05,28.85 -28.37,0 -55.3,-3.85 -80.31,-12.5 -25.49,-8.18 -47.13,-19.72 -64.92,-33.66 -50.02,-39.43 -85.6,-78.87 -107.73,-118.3 -22.12,-39.43 -33.18,-85.6 -33.18,-138.02 0,-23.57 1.92,-48.09 6.25,-73.58 4.33,-25.01 10.58,-54.34 19.24,-87.04 35.59,-148.6 96.66,-286.14 183.7,-412.14 87.04,-126.47 194.77,-234.2 323.17,-323.64 50.01,-34.63 99.54,-56.75 149.56,-66.85 49.53,-9.62 99.06,-14.91 147.64,-14.91 21.64,0 46.17,1.44 72.62,4.33 26.93,2.89 50.98,5.77 72.62,8.66 21.64,-4.81 39.44,-8.18 52.9,-10.1 13.47,-1.92 27.89,-2.89 42.8,-2.89 28.37,0 51.94,3.85 70.7,11.54 18.75,7.22 33.66,17.31 45.2,30.3 11.06,12.5 19.24,27.41 24.53,43.76 5.29,16.35 7.69,33.66 7.69,51.46 0,24.04 -3.85,47.61 -11.06,69.73 -7.69,22.12 -15.39,44.24 -22.6,66.84l-186.11 742.51c-3.85,40.4 -7.21,77.42 -9.62,111.09 -2.89,33.66 -8.66,65.4 -17.31,94.26 -2.41,8.66 -6.25,19.23 -10.58,31.74 -3.85,12.98 -10.58,25 -20.2,37.03 -9.62,11.54 -21.16,21.64 -35.11,30.29 -14.43,8.18 -32.7,12.5 -55.3,12.5 -28.85,0 -51.94,-1.92 -69.73,-5.77 -17.31,-3.85 -30.78,-9.14 -39.92,-15.87 -9.62,-7.22 -15.39,-15.87 -18.27,-25.49 -2.89,-10.1 -4.33,-21.64 -4.33,-34.63zm-467.92 -425.6c-3.37,13.46 -7.69,32.22 -11.54,56.26 -4.33,24.53 -6.73,49.05 -6.73,73.58 0,25 3.85,48.09 11.54,68.29 7.22,20.2 24.04,30.3 49.05,30.3 39.44,0 76.47,-8.66 110.61,-25.97 34.63,-17.31 66.36,-38.47 96.66,-63 40.4,-32.7 81.27,-69.73 123.11,-110.61 41.84,-40.88 81.28,-83.68 118.3,-128.88 37.51,-45.2 70.21,-91.37 99.07,-138.5 28.37,-47.61 49.53,-94.73 62.51,-141.87 7.22,-26.93 13.95,-58.67 18.76,-94.25 5.29,-35.59 8.18,-67.81 8.18,-95.7 0,-12.51 -2.89,-24.53 -8.66,-36.07 -5.77,-11.54 -16.35,-17.79 -32.22,-17.79 -46.17,0 -92.33,9.14 -138.98,26.93 -46.65,17.79 -91.37,41.84 -134.65,71.66 -43.28,30.3 -84.16,65.88 -123.11,106.76 -38.95,40.88 -74.54,84.16 -106.28,130.8 -32.22,46.65 -59.63,94.26 -82.71,143.79 -23.08,49.05 -40.4,97.62 -52.9,144.27zm2485.88 160.62c31.74,11.54 64.44,24.53 97.62,39.44 33.66,14.91 67.81,29.33 103.88,43.28 35.59,13.47 72.62,25.01 111.57,34.14 38.96,9.62 80.79,14.43 125.03,14.43 51.46,0 103.88,-6.25 156.3,-18.28 52.42,-12.5 103.87,-30.29 154.37,-54.34 50.01,-24.05 98.1,-53.38 144.27,-87.53 46.17,-34.14 88.48,-74.06 126.96,-118.78 42.32,-48.09 77.43,-91.37 105.32,-130.32 28.37,-38.95 50.98,-74.06 68.77,-104.36 17.31,-30.77 29.81,-56.74 37.03,-78.87 7.69,-22.12 11.54,-41.36 11.54,-57.23 0,-23.56 -8.18,-43.76 -24.05,-61.07 -15.87,-17.31 -37.51,-31.74 -64.44,-43.28 -26.45,-11.06 -56.74,-19.24 -90.41,-24.52 -34.14,-5.29 -69.25,-7.7 -105.8,-7.7 -21.64,0 -47.13,0.48 -75.98,1.93 -29.33,1.44 -58.67,2.89 -88.97,4.33 -29.81,1.44 -59.15,2.41 -87.52,3.37 -27.89,0.96 -52.42,1.44 -73.1,1.44 -30.78,0 -63,-3.37 -96.66,-10.58 -33.18,-6.73 -65.88,-18.27 -97.62,-34.14 -32.22,-16.35 -61.55,-37.51 -88.96,-64.92 -26.93,-27.41 -49.53,-61.07 -67.33,-101.47 -5.77,-12.99 -11.06,-28.85 -15.87,-46.65 -4.33,-17.8 -6.73,-37.03 -6.73,-57.71 0,-22.6 1.44,-43.77 4.81,-63.96 3.37,-20.2 7.22,-39.91 12.02,-58.67 12.99,-46.65 35.11,-94.74 65.4,-142.83 30.78,-48.57 67.33,-95.7 110.13,-141.87 42.32,-45.69 88.97,-90.41 139.46,-133.69 50.02,-43.28 101.95,-83.68 154.85,-121.67 52.9,-37.99 105.32,-72.62 156.29,-102.91 51.46,-30.78 99.06,-56.75 142.83,-78.39 62.04,-29.82 125.52,-51.94 189.48,-65.4 64.44,-13.47 128.4,-20.2 190.92,-20.2 37.99,0 73.58,4.81 107.24,14.43 33.66,10.1 63.48,24.53 89.45,43.28 25.97,18.75 46.17,41.84 61.55,69.73 14.91,27.41 22.12,59.15 22.12,94.74 0,20.68 -1.93,38.47 -6.73,52.42 -4.81,13.95 -11.06,25.49 -18.28,34.63 -7.69,8.66 -15.87,14.91 -25,18.75 -8.66,3.85 -17.8,5.77 -27.41,5.77 -25,0 -48.57,-2.89 -69.73,-8.66 -21.16,-5.29 -41.36,-12.02 -61.07,-18.75 -19.72,-7.22 -39.44,-13.95 -59.15,-19.72 -19.71,-6.25 -41.36,-9.14 -64.92,-9.14 -69.25,0 -139.94,13.47 -212.08,41.36 -71.66,27.89 -141.87,63 -209.68,105.8 -68.29,42.8 -132.73,90.41 -193.32,142.83 -60.59,52.9 -114.93,103.88 -162.54,153.89 -25.49,25.97 -43.76,52.42 -55.78,78.87 -11.54,25.97 -17.31,50.97 -17.31,74.54 0,34.63 14.91,62.03 44.72,81.75 30.3,19.72 66.84,29.33 110.13,29.33 25.49,0 53.86,-0.48 85.6,-1.44 32.22,-0.96 64.92,-1.93 98.1,-3.37 33.18,-1.44 65.88,-2.89 97.14,-4.33 31.74,-1.44 59.63,-1.93 84.16,-1.93 58.19,0 113.97,8.18 167.35,24.53 53.86,16.35 100.99,40.88 142.35,72.62 41.36,31.74 74.54,71.66 99.54,119.26 24.53,47.13 37.03,101.47 37.03,162.54 0,37.51 -5.29,75.5 -16.83,113.98 -11.06,38.47 -26.93,77.42 -46.65,116.38 -19.72,38.95 -41.84,77.43 -67.33,115.42 -25.49,37.99 -52.42,75.5 -80.31,112.05 -50.98,65.88 -107.24,127.92 -169.76,186.11 -62.51,58.19 -128.88,108.69 -199.57,151.97 -70.21,43.28 -144.75,77.42 -223.14,102.91 -78.39,25.49 -159.18,37.99 -241.9,37.99 -35.59,0 -72.14,-3.37 -109.65,-9.62 -37.51,-6.73 -74.54,-16.35 -111.09,-28.85 -37.03,-12.99 -71.18,-28.85 -103.88,-48.09 -32.22,-19.23 -60.59,-40.88 -85.12,-65.4 -24.53,-24.53 -43.77,-51.46 -58.67,-81.27 -14.43,-29.34 -21.64,-61.56 -21.64,-96.18 0,-17.31 2.41,-33.18 7.69,-48.57 5.29,-15.87 18.28,-23.57 38.96,-23.57zm1511.57 846.87c18.76,-75.98 35.59,-145.71 50.01,-209.19 14.91,-63.48 27.89,-123.11 40.4,-178.9 12.02,-55.78 23.56,-110.13 34.63,-162.06 10.58,-51.94 21.64,-104.84 32.22,-157.74 10.58,-53.38 22.12,-108.2 33.66,-165.43 12.02,-57.71 25.01,-119.74 38.96,-187.55l67.81 -327.01c11.06,-55.3 18.76,-102.91 23.08,-142.83 4.33,-39.92 6.25,-76.95 6.25,-110.61 0,-35.59 0.96,-67.33 2.89,-95.22 1.93,-27.41 7.22,-50.98 15.39,-70.21 8.66,-19.23 21.16,-34.14 37.51,-43.76 16.35,-10.1 38.96,-14.91 68.29,-14.91 42.32,0 75.02,5.77 98.58,17.79 23.56,11.54 40.88,26.93 51.94,45.69 11.54,18.76 18.27,40.4 20.68,64.92 2.41,24.04 3.37,49.53 3.37,75.98 32.22,-22.6 69.25,-42.8 112.05,-60.59 42.8,-17.79 87.04,-32.7 133.21,-44.24 46.17,-12.03 92.33,-21.16 139.47,-27.89 47.13,-6.25 90.89,-9.62 132.24,-9.62 67.81,0 126.96,12.02 177.46,36.07 50.97,23.56 93.29,55.78 126.96,95.7 33.66,39.92 59.15,86.08 75.98,138.02 16.83,51.94 25.49,105.8 25.49,161.1 0,64.92 -10.1,125.99 -30.78,183.22 -20.68,57.23 -49.05,111.09 -84.64,160.62 -35.59,50.01 -77.43,96.18 -124.55,138.98 -47.61,42.8 -98.58,81.75 -153.89,117.82 -54.82,35.59 -111.57,68.29 -170.24,97.62 -58.67,29.81 -116.86,56.27 -174.09,79.83 -38.47,15.87 -75.02,27.89 -109.16,35.59 -34.14,8.18 -64.92,12.02 -92.33,12.02 -38.48,0 -75.99,-4.33 -112.05,-12.5 -36.07,-8.66 -71.18,-22.6 -104.84,-42.32 -18.76,63.96 -34.63,125.03 -47.13,183.23 -12.98,58.19 -23.08,109.65 -30.29,154.85 -4.81,28.37 -10.58,57.71 -16.83,88.97 -6.73,30.78 -13.47,61.07 -20.2,90.89 -6.25,29.34 -12.5,57.23 -18.75,83.68 -6.26,26.45 -11.06,48.57 -14.91,67.81 -2.89,11.06 -9.62,20.68 -20.2,27.89 -11.06,7.7 -24.04,13.95 -38.95,19.24 -14.91,4.81 -30.3,8.66 -45.69,11.06 -15.39,2.41 -29.33,3.37 -41.36,3.37 -69.73,0 -104.36,-26.93 -104.36,-81.27 0,-15.39 2.41,-31.26 6.73,-48.09zm437.14 -817.05c13.95,1.92 28.85,4.33 44.73,6.73 16.35,2.89 31.74,5.77 46.65,8.66 14.91,2.89 27.89,5.29 38.95,7.7 10.58,2.41 17.79,3.37 21.64,3.37 17.79,0 37.99,-1.93 59.63,-6.73 22.12,-4.81 44.25,-11.06 66.36,-18.28 22.12,-7.69 43.28,-15.87 63.96,-25 20.68,-8.66 39.43,-17.31 55.3,-25.97 45.68,-23.57 95.22,-51.94 147.16,-85.12 51.94,-33.18 100.51,-71.66 145.23,-114.94 44.24,-43.28 81.27,-91.37 110.61,-145.23 28.85,-53.38 43.28,-112.53 43.28,-177.45 0,-25.97 -2.89,-50.5 -9.62,-73.1 -6.74,-22.6 -16.35,-42.32 -29.82,-59.15 -12.98,-16.83 -30.29,-30.29 -51.45,-40.4 -20.68,-9.62 -46.17,-14.43 -75.02,-14.43 -32.22,0 -62.04,1.93 -90.41,6.25 -27.89,4.33 -55.78,11.06 -83.19,20.2 -26.93,9.62 -54.34,21.64 -81.76,36.07 -26.93,14.43 -55.3,32.22 -84.16,52.9 -26.45,21.64 -56.26,40.4 -88.97,57.23 -32.7,16.35 -68.29,26.93 -107.24,31.26l-141.87 555.44zm1176.38 -248.15c0,-40.4 11.06,-74.54 32.7,-102.91 21.64,-27.89 50.01,-46.65 85.6,-56.26 10.58,-20.68 26.45,-48.57 48.09,-83.68 21.64,-35.11 48.57,-73.58 80.31,-114.94 31.74,-41.36 68.29,-82.71 109.17,-124.55 40.88,-41.84 86.08,-79.83 135.13,-114.46 49.54,-34.14 102.43,-62.03 159.18,-83.67 56.74,-21.64 117.34,-32.22 181.3,-32.22 54.34,0 101.95,6.26 142.35,19.72 40.4,12.99 73.58,31.26 100.03,54.82 25.97,23.56 45.69,51.46 59.15,83.68 12.98,32.7 19.71,67.33 19.71,105.32 0,31.74 -4.33,62.03 -12.98,91.37 -12.99,52.42 -37.51,98.58 -73.1,138.02 -35.59,39.44 -77.91,74.06 -126,103.4 -48.57,29.81 -100.99,54.34 -157.74,74.06 -57.22,19.72 -113.97,36.07 -170.72,49.53 -56.74,12.99 -111.57,23.08 -163.98,30.3 -52.9,6.73 -98.1,12.5 -136.58,15.87 -8.66,17.31 -15.87,38.48 -22.12,64.44 -5.77,25.48 -9.14,50.97 -9.14,75.5 0,54.34 21.64,96.66 64.92,126.47 43.28,30.3 102.91,45.21 178.9,45.21 44.24,0 86.56,-4.81 126.96,-14.91 40.4,-9.62 78.39,-22.6 114.94,-37.99 36.07,-15.39 69.73,-32.22 101.95,-50.5 31.74,-18.27 61.07,-36.55 87.52,-54.34 33.66,-22.6 65.88,-41.84 96.18,-57.23 30.78,-15.39 57.71,-23.08 81.28,-23.08 23.56,0 38.47,5.77 44.72,17.31 6.73,12.02 10.1,24.52 10.1,37.51 0,7.69 -0.48,14.91 -0.96,21.64 -0.48,7.22 -0.96,12.99 -1.92,17.79 -4.81,24.53 -13.95,49.05 -27.89,73.1 -14.43,24.52 -32.22,45.68 -53.86,63.48 -97.62,76.94 -197.65,132.24 -300.56,164.95 -102.91,32.7 -212.56,49.53 -328.94,49.53 -22.6,0 -49.05,-1.44 -79.83,-4.33 -30.3,-2.89 -62.04,-8.66 -95.22,-16.83 -32.7,-8.65 -64.92,-20.68 -97.14,-37.03 -31.74,-15.87 -60.11,-37.03 -85.12,-63 -25.01,-26.45 -45.21,-58.67 -60.59,-97.62 -15.39,-38.47 -23.08,-84.64 -23.08,-139.46 0,-43.76 5.77,-93.29 18.27,-147.64 -12.5,-1.93 -24.04,-8.18 -34.63,-19.24 -11.06,-10.58 -16.35,-26.45 -16.35,-47.13zm881.98 -390.01c1.92,-4.81 2.89,-9.14 2.89,-12.99 0,-3.85 0,-7.69 0,-12.5 0,-25.49 -9.14,-44.24 -27.89,-57.23 -19.24,-12.5 -41.36,-18.75 -67.81,-18.75 -41.36,0 -82.24,10.58 -122.15,32.22 -39.91,21.64 -77.42,48.57 -112.53,81.27 -35.11,32.22 -66.36,66.84 -93.77,103.88 -26.93,37.03 -48.09,70.7 -63.48,100.99 67.81,-5.77 129.84,-14.91 186.11,-27.41 56.27,-12.99 105.32,-28.85 147.16,-48.09 41.84,-19.24 75.5,-40.88 101.47,-64.92 25.97,-24.04 42.8,-49.53 50.02,-76.46z"/>
   <path class="fil1" d="M11428.83 6523.64c0,-27.41 3.37,-59.63 10.1,-98.1 6.25,-37.99 9.62,-85.12 9.62,-141.39 -30.77,22.6 -65.4,49.53 -102.91,80.31 -37.51,30.78 -76.47,60.59 -116.86,88.97 -40.4,27.89 -80.31,51.46 -120.22,70.69 -39.92,19.24 -77.43,28.85 -112.05,28.85 -28.37,0 -55.3,-3.85 -80.31,-12.5 -25.49,-8.18 -47.13,-19.72 -64.92,-33.66 -50.02,-39.43 -85.6,-78.87 -107.73,-118.3 -22.12,-39.43 -33.18,-85.6 -33.18,-138.02 0,-23.57 1.92,-48.09 6.25,-73.58 4.33,-25.01 10.58,-54.34 19.24,-87.04 35.59,-148.6 96.66,-286.14 183.7,-412.14 87.04,-126.47 194.77,-234.2 323.17,-323.64 50.01,-34.63 99.54,-56.75 149.56,-66.85 49.53,-9.62 99.06,-14.91 147.64,-14.91 21.64,0 46.17,1.44 72.62,4.33 26.93,2.89 50.98,5.77 72.62,8.66 21.64,-4.81 39.44,-8.18 52.9,-10.1 13.47,-1.92 27.89,-2.89 42.8,-2.89 28.37,0 51.94,3.85 70.7,11.54 18.75,7.22 33.66,17.31 45.2,30.3 11.06,12.5 19.24,27.41 24.53,43.76 5.29,16.35 7.69,33.66 7.69,51.46 0,24.04 -3.85,47.61 -11.06,69.73 -7.69,22.12 -15.39,44.24 -22.6,66.84l-186.11 742.51c-3.85,40.4 -7.21,77.42 -9.62,111.09 -2.89,33.66 -8.66,65.4 -17.31,94.26 -2.41,8.66 -6.25,19.23 -10.58,31.74 -3.85,12.98 -10.58,25 -20.2,37.03 -9.62,11.54 -21.16,21.64 -35.11,30.29 -14.43,8.18 -32.7,12.5 -55.3,12.5 -28.85,0 -51.94,-1.92 -69.73,-5.77 -17.31,-3.85 -30.78,-9.14 -39.92,-15.87 -9.62,-7.22 -15.39,-15.87 -18.27,-25.49 -2.89,-10.1 -4.33,-21.64 -4.33,-34.63zm-467.92 -425.6c-3.37,13.46 -7.69,32.22 -11.54,56.26 -4.33,24.53 -6.73,49.05 -6.73,73.58 0,25 3.85,48.09 11.54,68.29 7.22,20.2 24.04,30.3 49.05,30.3 39.44,0 76.47,-8.66 110.61,-25.97 34.63,-17.31 66.36,-38.47 96.66,-63 40.4,-32.7 81.27,-69.73 123.11,-110.61 41.84,-40.88 81.28,-83.68 118.3,-128.88 37.51,-45.2 70.21,-91.37 99.07,-138.5 28.37,-47.61 49.53,-94.73 62.51,-141.87 7.22,-26.93 13.95,-58.67 18.76,-94.25 5.29,-35.59 8.18,-67.81 8.18,-95.7 0,-12.51 -2.89,-24.53 -8.66,-36.07 -5.77,-11.54 -16.35,-17.79 -32.22,-17.79 -46.17,0 -92.33,9.14 -138.98,26.93 -46.65,17.79 -91.37,41.84 -134.65,71.66 -43.28,30.3 -84.16,65.88 -123.11,106.76 -38.95,40.88 -74.54,84.16 -106.28,130.8 -32.22,46.65 -59.63,94.26 -82.71,143.79 -23.08,49.05 -40.4,97.62 -52.9,144.27zm1655.84 -195.73c-18.75,0 -39.92,4.33 -63.48,13.47 -23.56,8.66 -47.13,19.23 -70.69,31.74 -23.08,12.02 -45.69,25 -67.33,37.99 -21.64,12.98 -40.4,23.56 -56.27,30.78l-128.4 507.35c-4.81,19.72 -16.35,34.63 -35.11,45.21 -18.76,10.1 -36.07,15.39 -52.42,15.39 -50.49,0 -85.12,-10.1 -103.39,-30.29 -18.28,-20.2 -27.41,-46.65 -27.41,-79.83 0,-13.95 0.96,-28.37 3.37,-42.8 2.41,-14.43 5.29,-29.81 9.14,-45.69l5.77 -24.04c5.77,-25.49 13.47,-57.23 23.08,-95.7 10.1,-38.47 20.68,-79.35 31.74,-122.15 11.54,-42.32 23.08,-85.6 34.63,-129.36 11.54,-43.76 22.6,-83.68 33.18,-120.71 10.1,-35.59 25.49,-88.48 45.69,-159.18 20.2,-70.21 42.8,-149.08 67.81,-236.6 24.53,-87.04 50.5,-178.41 77.43,-274.12 26.45,-95.21 51.94,-186.11 75.98,-272.67 24.05,-86.08 45.21,-163.02 63.96,-230.35 18.76,-66.84 32.22,-116.38 39.44,-148.6 8.66,-12.98 21.64,-23.56 39.44,-32.22 17.79,-8.66 38.95,-12.5 63.48,-12.5 16.83,0 34.14,1.92 52.42,6.25 17.79,4.33 33.66,10.58 48.57,19.72 14.43,8.66 26.45,20.2 35.59,33.66 9.62,13.47 14.43,29.33 14.43,47.13 0,12.5 -2.89,26.93 -8.66,43.76 -56.27,163.5 -112.05,332.78 -167.83,507.83 -55.3,175.05 -105.32,352.5 -150.52,531.88 12.02,-7.21 34.63,-23.08 67.81,-46.17 32.7,-23.56 69.25,-50.97 109.17,-81.75 39.92,-31.26 79.83,-63.48 120.22,-97.62 40.4,-33.66 74.06,-63.96 101.47,-91.37 18.75,-18.76 37.99,-38.48 57.22,-58.67 19.24,-20.2 37.51,-39.43 54.82,-57.71 17.31,-18.27 32.7,-34.63 45.69,-49.05 13.47,-14.43 23.56,-25.97 31.26,-34.63 17.79,-20.68 37.03,-37.99 58.19,-51.45 21.16,-13.47 42.8,-20.2 64.44,-20.2 20.68,0 39.44,2.89 56.27,9.62 16.83,6.73 31.26,14.91 43.76,24.52 12.02,10.1 21.64,21.16 27.89,34.14 6.73,12.51 10.1,24.53 10.1,35.59 0,14.43 -3.37,29.33 -10.1,45.2 -6.26,15.87 -14.43,31.74 -23.08,46.65 -9.14,14.91 -18.76,28.85 -28.85,41.36 -10.58,12.98 -19.24,22.6 -26.93,28.85 -25.48,22.6 -53.86,47.13 -86.08,74.06 -31.74,26.93 -64.92,53.86 -100.03,81.76 -34.63,27.89 -70.21,55.3 -106.28,83.19 -36.07,27.89 -71.17,54.34 -104.84,79.35 59.15,33.18 107.72,76.94 145.71,131.76 37.99,55.3 68.29,116.38 90.89,183.23 22.6,67.33 37.99,138.02 46.65,212.08 8.18,74.06 12.5,146.68 12.5,216.89 0,5.77 -0.48,14.43 -1.44,26.45 -0.96,11.54 -2.89,22.6 -5.29,32.7 -4.81,16.83 -10.58,32.7 -17.31,46.65 -6.25,13.95 -14.91,25.97 -25.97,36.07 -10.58,9.62 -24.04,17.31 -39.44,23.08 -15.39,5.77 -34.63,8.66 -57.23,8.66 -21.16,0 -39.43,-3.85 -54.82,-11.54 -14.91,-7.21 -27.41,-17.31 -37.03,-29.33 -10.1,-12.5 -17.31,-25.97 -22.12,-40.88 -4.81,-14.91 -6.73,-30.3 -6.73,-45.21 0,-47.13 -1.44,-95.7 -4.33,-145.71 -2.89,-50.5 -8.66,-99.06 -16.83,-145.72 -8.66,-47.13 -20.2,-91.37 -34.63,-133.21 -14.43,-41.84 -33.66,-77.91 -57.22,-107.72 -16.83,-21.64 -32.7,-38.95 -47.13,-50.98 -14.43,-12.02 -32.22,-18.27 -52.9,-18.27l-11.06 0z"/>
  </g>
 </g>
</svg>
